<?xml version="1.0" encoding="UTF-8"?>
<svg xmlns="http://www.w3.org/2000/svg" xmlns:xlink="http://www.w3.org/1999/xlink" width="16px" height="16px" viewBox="0 0 16 16">
<path d="M 12.503906 7.628906 L 5.03125 0.160156 C 4.925781 0.0546875 4.804688 0 4.664062 0 C 4.527344 0 4.402344 0.0546875 4.296875 0.160156 L 3.496094 0.960938 C 3.386719 1.070312 3.335938 1.191406 3.335938 1.332031 C 3.335938 1.46875 3.386719 1.59375 3.496094 1.699219 L 9.792969 8 L 3.496094 14.296875 C 3.386719 14.40625 3.335938 14.527344 3.335938 14.667969 C 3.335938 14.804688 3.386719 14.929688 3.496094 15.035156 L 4.296875 15.835938 C 4.402344 15.941406 4.527344 15.996094 4.664062 15.996094 C 4.804688 15.996094 4.925781 15.941406 5.03125 15.835938 L 12.503906 8.367188 C 12.609375 8.261719 12.664062 8.136719 12.664062 8 C 12.664062 7.859375 12.609375 7.738281 12.503906 7.628906 Z M 12.503906 7.628906 "/>
</svg>
