<?xml version="1.0" encoding="UTF-8"?>
<svg xmlns="http://www.w3.org/2000/svg" xmlns:xlink="http://www.w3.org/1999/xlink" width="16pt" height="16pt" viewBox="0 0 16 16" version="1.1">
<g id="surface1">
<path style=" stroke:none;fill-rule:nonzero;fill:rgb(0%,0%,0%);fill-opacity:1;" d="M 15.832031 4.398438 C 15.289062 2.273438 13.496094 0.789062 11.464844 0.789062 C 10.128906 0.789062 8.917969 1.433594 8 2.621094 C 7.078125 1.433594 5.871094 0.789062 4.535156 0.789062 C 2.503906 0.789062 0.710938 2.273438 0.167969 4.398438 C -0.121094 5.535156 -0.179688 7.355469 1.199219 9.554688 C 2.476562 11.585938 4.683594 13.46875 7.765625 15.148438 C 7.835938 15.1875 7.917969 15.210938 8 15.210938 C 8.078125 15.210938 8.160156 15.1875 8.234375 15.148438 C 11.316406 13.46875 13.523438 11.585938 14.800781 9.554688 C 16.179688 7.355469 16.121094 5.535156 15.832031 4.398438 Z M 8 14.164062 C 0.4375 9.949219 0.816406 5.816406 1.113281 4.640625 C 1.546875 2.949219 2.953125 1.769531 4.535156 1.769531 C 5.730469 1.769531 6.8125 2.46875 7.582031 3.738281 C 7.667969 3.882812 7.828125 3.972656 8 3.972656 C 8.167969 3.972656 8.328125 3.882812 8.417969 3.738281 C 9.1875 2.46875 10.269531 1.769531 11.464844 1.769531 C 13.046875 1.769531 14.453125 2.949219 14.886719 4.640625 C 15.183594 5.816406 15.5625 9.949219 8 14.164062 Z M 8 14.164062 "/>
</g>
</svg>
